<svg width="19" height="21" viewBox="0 0 19 21" fill="none" xmlns="http://www.w3.org/2000/svg">
<path fill-rule="evenodd" clip-rule="evenodd" d="M9.5 0C14.4706 0 18.5 4.02944 18.5 9C18.5 12.0738 16.8241 14.5892 15.0584 16.3945C14.0897 17.3849 13.0597 18.1973 12.1817 18.8113L11.7564 19.1017C11.6879 19.1473 11.6208 19.1915 11.5551 19.2343L11.1789 19.474L10.8429 19.6791L10.4271 19.921C9.8479 20.2481 9.1521 20.2481 8.5729 19.921L8.15713 19.6791L7.63766 19.3584C7.57492 19.3184 7.51063 19.2771 7.44491 19.2343L7.03449 18.9607C6.11244 18.3315 4.99106 17.4674 3.94162 16.3945C2.1759 14.5892 0.5 12.0738 0.5 9C0.5 4.02944 4.52944 0 9.5 0ZM9.5 2C5.63401 2 2.5 5.13401 2.5 9C2.5 11.3224 3.77202 13.3608 5.37141 14.996C6.10687 15.7479 6.88754 16.3895 7.59292 16.9063L8.0507 17.2322C8.19869 17.3346 8.34164 17.4307 8.47823 17.5203L8.86758 17.7694L9.21081 17.9788L9.5 18.1475L9.95455 17.8792L10.3218 17.6498C10.5167 17.5252 10.7273 17.3858 10.9493 17.2322L11.4071 16.9063C12.1125 16.3895 12.8932 15.7479 13.6286 14.996C15.228 13.3608 16.5 11.3224 16.5 9C16.5 5.13401 13.366 2 9.5 2ZM9.5 5C11.7091 5 13.5 6.79086 13.5 9C13.5 11.2091 11.7091 13 9.5 13C7.29086 13 5.5 11.2091 5.5 9C5.5 6.79086 7.29086 5 9.5 5ZM9.5 7C8.3954 7 7.5 7.89543 7.5 9C7.5 10.1046 8.3954 11 9.5 11C10.6046 11 11.5 10.1046 11.5 9C11.5 7.89543 10.6046 7 9.5 7Z" fill="#103F6A"/>
</svg>
