<svg width="24" height="25" viewBox="0 0 24 25" fill="none" xmlns="http://www.w3.org/2000/svg">
<g clip-path="url(#clip0_1009_19171)">
<path fill-rule="evenodd" clip-rule="evenodd" d="M8.17107 16.3285C12.0169 20.1743 15.5797 20.5954 16.6254 20.6339C17.8899 20.6804 19.1797 19.6483 19.7371 18.5906C18.8475 17.5465 17.6887 16.7367 16.419 15.8587C15.6707 16.607 14.7479 17.9973 13.5181 17.4999C12.8198 17.2175 11.0936 16.4226 9.58529 14.9143C8.07691 13.4059 7.28205 11.6797 6.99965 10.9815C6.50183 9.75061 7.89525 8.82612 8.64411 8.07726C7.76656 6.78657 6.9701 5.59818 5.92819 4.7532C4.85677 5.31369 3.81858 6.5937 3.86569 7.87412C3.90417 8.91978 4.32527 12.4827 8.17107 16.3285ZM16.5518 22.6325C15.1109 22.5795 11.0302 22.0161 6.75686 17.7427C2.48347 13.4693 1.92007 9.38862 1.86705 7.94767C1.78625 5.75221 3.46805 3.61902 5.41166 2.78605C5.86772 2.59059 6.42011 2.62636 6.85679 2.94489C8.46442 4.11756 9.57357 5.89531 10.5261 7.28731C10.9319 7.88037 10.8649 8.6849 10.3497 9.20012L8.99329 10.5565C9.3081 11.2518 9.95037 12.4509 10.9995 13.5C12.0486 14.5492 13.2477 15.1914 13.943 15.5063L15.2987 14.1505C15.8144 13.6349 16.6224 13.5669 17.2168 13.9787C18.6368 14.9625 20.3045 16.056 21.5205 17.6133C21.862 18.0507 21.9128 18.6227 21.7091 19.0981C20.8723 21.0507 18.7547 22.7136 16.5518 22.6325Z" fill="#103F6A"/>
</g>
<defs>
<clipPath id="clip0_1009_19171">
<rect width="24" height="24" fill="white" transform="translate(0 0.5)"/>
</clipPath>
</defs>
</svg>
